<svg width="190" height="170" viewBox="0 0 190 170" fill="none" xmlns="http://www.w3.org/2000/svg">
<g clip-path="url(#clip0_324_27)">
<path fill-rule="evenodd" clip-rule="evenodd" d="M7.22962 141.82V135.59V9.23C7.23962 1.27 8.49962 0 16.4496 0H173.16C181.16 0 182.46 1.28 182.46 9.14V135.5V141.71C182.878 141.773 183.273 141.844 183.651 141.912C184.474 142.059 185.219 142.193 185.96 142.2C189.05 142.24 190.26 143.78 189.46 146.67C189.187 147.654 188.925 148.643 188.662 149.634L188.662 149.634C187.69 153.296 186.715 156.97 185.22 160.41C182.71 166.2 177.95 169.29 171.47 169.29C158.702 169.29 145.934 169.291 133.166 169.292H133.165H133.164H133.163H133.162H133.161H133.16H133.159C94.856 169.296 56.55 169.3 18.2496 169.27C11.2296 169.27 6.00962 165.38 3.62962 158.64C2.95689 156.737 2.43192 154.779 1.90723 152.822C1.65979 151.899 1.41241 150.977 1.14962 150.06C-0.930378 142.77 -0.910378 142.73 7.21962 141.82H7.22962ZM176.19 141.95V6.25H13.5896V141.96H176.19V141.95ZM73.7996 148.4H7.51962C8.29962 159.94 11.8096 163.35 22.6896 163.35H70.4396C78.243 163.35 86.0464 163.348 93.8498 163.346C119.206 163.338 144.563 163.331 169.92 163.4C174.32 163.41 177.88 162.2 179.73 158.12C180.65 156.094 181.277 153.937 181.94 151.66C182.242 150.621 182.552 149.557 182.9 148.47H115.91C113.52 157.44 111.89 158.67 102.59 158.68C100.819 158.68 99.05 158.681 97.2811 158.682H97.2618H97.2607H97.2597H97.2586H97.2575H97.2564H97.2554C93.7273 158.684 90.2007 158.687 86.6696 158.68C77.8496 158.66 76.0296 157.24 73.7896 148.41L73.7996 148.4ZM80.4596 148.5C81.2329 151.78 89.113 153.197 104.1 152.75L104.238 152.746L104.402 152.742C107.002 152.671 109.553 152.601 109.12 148.5H80.4596ZM20.5703 134.13V128.89V23.4298C20.5703 14.6998 21.9403 13.3198 30.6503 13.3198H159.49C167.6 13.3198 169.09 14.7998 169.1 22.8798C169.107 46.3862 169.105 69.8925 169.103 93.3989V93.5198C169.101 105.293 169.1 117.066 169.1 128.84V134.14H20.5703V134.13ZM26.7003 128.24H162.85V19.6698H26.7003V128.23V128.24ZM118.011 89.0772C117.439 90.4504 116.858 91.8449 116.26 93.2801H116.28C117.148 94.0237 118.035 94.7809 118.939 95.5532L118.94 95.5539L118.942 95.5559C120.493 96.8805 122.095 98.2494 123.75 99.6701L123.237 100.226L123.234 100.229C121.808 101.775 120.607 103.078 119.23 104.58L117.63 102.765L117.619 102.753C115.69 100.565 113.982 98.6271 112.51 96.9501C109.197 98.3527 106.105 99.6586 103.031 100.957L103.02 100.962C101.254 101.708 99.4933 102.452 97.6996 103.21V112.86H91.9496V103.19C90.1767 102.438 88.4402 101.701 86.7219 100.972L86.5994 100.92L86.5239 100.888C83.3776 99.5537 80.2901 98.2441 77.1496 96.9101C76.4468 97.7238 75.7395 98.5433 75.0394 99.3543C73.6576 100.955 72.3041 102.523 71.0696 103.95L65.8696 99.9301C67.489 98.467 68.9868 97.11 70.356 95.8694L70.3686 95.858L70.3798 95.8479L70.3819 95.846L70.3846 95.8435C71.4564 94.8724 72.4492 93.9729 73.3596 93.1501L67.2196 78.3801H57.4296V72.5101H65.1196C65.2084 71.362 65.2901 70.2945 65.3732 69.2101L65.3733 69.2084L65.3747 69.1903C65.4315 68.4488 65.4889 67.6991 65.5496 66.9101L51.5996 65.6501V85.2701C55.3319 85.0256 58.7372 84.8077 62.2475 84.5831L62.9196 84.5401C63.4436 85.7528 63.9453 86.9183 64.4469 88.0837L64.4493 88.0892L64.4524 88.0966C64.954 89.2619 65.4556 90.4273 65.9796 91.6401C64.3 93.1068 62.6535 94.5405 61.1543 95.846L61.1478 95.8516L61.1457 95.8534C60.0418 96.8147 59.0178 97.7062 58.1196 98.4901C60.1234 100.546 62.0969 102.57 64.0608 104.584C66.6151 107.203 69.153 109.806 71.7196 112.44L78.2596 104.88C86.6308 104.965 86.008 109.366 85.3856 113.763C85.1329 115.549 84.8802 117.334 85.2296 118.83H104.62C104.754 117.427 104.532 115.855 104.311 114.287C103.659 109.666 103.012 105.082 111.51 104.97L118.17 112.67C120.212 110.698 122.177 108.8 124.103 106.939L124.12 106.922L124.179 106.865L124.251 106.796C126.95 104.188 129.577 101.651 132.24 99.0801L124.17 92.0301C124.672 83.7431 129.248 84.3613 133.866 84.9853C135.311 85.1805 136.76 85.3763 138.09 85.3001V65.5601C133.15 66.0601 128.63 66.5201 123.86 67.0101C124.049 68.2324 124.211 69.2678 124.366 70.2572L124.372 70.2997L124.374 70.3111L124.376 70.3247C124.495 71.0838 124.609 71.8176 124.73 72.5901H132.15V78.7801L122.52 78.2701C120.974 81.9633 119.523 85.446 118.011 89.0772ZM71.9599 71.0301C73.4099 64.0301 70.7699 59.7201 63.6599 58.2501C59.1299 57.3201 57.5199 54.5301 58.1999 49.9801C58.7199 46.4801 58.0599 43.5801 54.8399 40.9501C51.0499 37.8601 51.7199 31.9001 55.3799 28.6101C58.8699 25.4801 64.2199 25.6101 67.5399 28.9101C70.9899 32.3401 70.9499 37.8601 67.5799 41.4601C67.4058 41.6453 67.2254 41.8325 67.0428 42.0219L67.0409 42.0239L67.0405 42.0243C65.8922 43.216 64.6562 44.4987 64.3199 45.9301C63.3999 49.8101 64.2499 53.1301 68.9799 54.0801C76.6599 55.6201 79.3499 60.3401 77.9999 67.9401C77.5977 70.1811 77.7413 72.5366 77.883 74.8628L77.8831 74.8631L77.8831 74.8634L77.8831 74.8637L77.8831 74.8641L77.8832 74.8644C77.9141 75.3715 77.9449 75.8773 77.9699 76.3801C78.4399 85.4201 86.0499 92.5901 94.9799 92.5001C103.94 92.4101 111.41 85.1901 111.73 76.1101C111.9 71.3101 111.93 66.4901 111.73 61.6901C111.61 58.9701 112.33 57.3201 115.06 56.5401C116.257 56.1962 117.393 55.6534 118.528 55.1105L118.529 55.1104C119.044 54.8642 119.559 54.6179 120.08 54.3901C127.02 51.3501 127.77 47.0301 122.3 41.6101C118.77 38.1201 118.65 32.6001 122.01 29.0901C125.28 25.6701 130.56 25.4001 134.15 28.4701C137.88 31.6601 138.82 37.8601 135 40.7601C131.191 43.6508 131.332 47.0868 131.479 50.6776C131.494 51.037 131.509 51.398 131.52 51.7601C131.6 54.5401 131.16 56.7601 128.08 57.3701C118.8 59.2001 116.89 65.0001 117.53 73.8101C118.38 85.5601 111.36 94.6901 101.1 97.5201C86.6099 101.52 72.4599 91.0701 71.9999 76.0001C71.9687 74.9621 71.9765 73.9241 71.9843 72.8885C71.989 72.268 71.9937 71.6484 71.9899 71.0301H71.9599ZM65.3599 35.3501C64.7028 34.8521 64.1389 34.3456 63.6431 33.9003C62.7055 33.0582 62.0113 32.4347 61.3899 32.5001C60.6407 32.5772 59.965 33.3701 59.2908 34.1612C59.0021 34.4999 58.7137 34.8384 58.4199 35.1201C58.7014 35.4076 58.9745 35.751 59.2481 36.0947C59.8784 36.887 60.5107 37.6816 61.2499 37.8001C61.881 37.8987 62.6157 37.3449 63.6018 36.6016C64.1159 36.2141 64.6983 35.7751 65.3699 35.3501H65.3599ZM126.993 32.8839L126.993 32.884C126.259 33.8775 125.697 34.6381 125.79 35.3101C125.93 36.3101 127.63 37.8501 128.53 37.7801C129.51 37.7001 131.05 36.0501 131.08 35.0501C131.093 34.3694 130.438 33.6755 129.585 32.7722L129.585 32.7722L129.585 32.7719C129.147 32.3086 128.658 31.7902 128.18 31.1901H128.17C127.775 31.8259 127.362 32.3843 126.993 32.8839ZM84.5486 72.0373L84.5485 72.0375C84.0108 72.9266 83.4732 73.8155 82.8899 74.6401L82.8799 74.6301C83.7999 80.5301 87.1599 84.8701 92.2999 86.2001C97.1499 87.4601 102.42 84.9301 104.69 80.2601C106.97 75.5601 105.96 69.8201 101.46 67.0401C98.4199 65.1701 97.4699 63.1301 97.7799 59.8901C97.8944 58.745 97.8673 57.5877 97.8401 56.4286L97.84 56.428V56.4279V56.4278V56.4277C97.8245 55.7651 97.809 55.1019 97.8199 54.4401C97.8307 53.8835 97.8269 53.3306 97.8232 52.7825C97.7994 49.2633 97.7769 45.9421 101.61 43.1301C105.33 40.4001 104.3 34.4701 100.74 31.2701C97.1999 28.0901 92.0399 28.2001 88.6299 31.5401C85.2199 34.8801 84.5199 40.6701 88.2799 43.4501C91.9753 46.1806 91.9283 49.358 91.8755 52.9283C91.8736 53.0584 91.8716 53.189 91.8699 53.3201C91.863 53.8518 91.8513 54.3846 91.8396 54.9179L91.8396 54.9186V54.9188V54.9189V54.919V54.9191C91.8005 56.702 91.7613 58.4899 91.8999 60.2601C92.1199 63.1101 91.3399 64.8701 88.7599 66.7201C86.9956 67.9912 85.7717 70.0149 84.5486 72.0373ZM93.4499 69.8301L95.8099 69.7501C96.2196 70.3188 96.7415 70.8997 97.2635 71.4807C98.4489 72.7999 99.6348 74.1199 99.5099 75.3001C99.3706 76.6161 98.0242 77.806 96.6791 78.9947C96.0923 79.5133 95.5058 80.0316 95.0199 80.5601C94.5018 80.0692 93.8854 79.5949 93.2684 79.1202L93.2684 79.1201L93.2683 79.12L93.2682 79.12L93.2682 79.1199C91.849 78.0278 90.4268 76.9334 90.1899 75.6301C89.9748 74.4645 91.0546 73.063 92.1335 71.6627C92.6096 71.0448 93.0855 70.4271 93.4499 69.8301ZM93.7097 35.3517L93.7098 35.3517L93.71 35.3515L93.71 35.3514C94.1581 34.9171 94.6585 34.4321 95.1499 33.8701L95.1599 33.8601C95.5611 34.4926 95.9983 35.0707 96.3898 35.5886C97.1497 36.5937 97.7381 37.3719 97.5599 37.8801C97.2652 38.7081 96.3746 39.3195 95.4826 39.9319C95.1034 40.1922 94.724 40.4527 94.3899 40.7301C94.1459 40.4108 93.8439 40.0897 93.5412 39.7679C92.8389 39.0213 92.1329 38.2708 92.1399 37.5301C92.1465 36.8667 92.8265 36.2077 93.7097 35.3517ZM154.25 122.43H138.24C138.15 120.68 138.07 119.11 137.97 117.11H153.97L154.25 122.43ZM33.0596 36.8799V42.0999H48.9896L48.6996 36.8799H33.0596ZM34.4199 30.8301V25.5801H48.6999L48.9399 30.8301H34.4199ZM153.89 105.7H139.97V111.2H153.89V105.7Z" fill="white"/>
</g>
<defs>
<clipPath id="clip0_324_27">
<rect width="189.7" height="169.31" fill="white"/>
</clipPath>
</defs>
</svg>
