<svg width="200" height="166" viewBox="0 0 200 166" fill="none" xmlns="http://www.w3.org/2000/svg">
<g clip-path="url(#clip0_324_50)">
<path fill-rule="evenodd" clip-rule="evenodd" d="M7.01745 0.302611C3.19307 1.19479 1.20001 3.94438 0 7.4505V122.704C1.99828 128.307 6.09918 130.086 11.8436 130.029C25.9076 129.893 39.9743 129.916 54.0397 129.939H54.0403H54.0408H54.0414H54.0419H54.0425H54.043H54.0436H54.0441H54.0447H54.0452C59.3784 129.947 64.7114 129.956 70.0441 129.956H72.8093L72.6023 130.986C71.7873 135.042 71.0171 138.875 70.2424 142.744C69.8896 142.744 69.5673 142.74 69.265 142.736H69.2647H69.2643H69.264H69.2636H69.2634H69.2631H69.2628H69.2625H69.2623H69.262C68.6715 142.728 68.1578 142.721 67.6441 142.749C60.8875 143.114 55.6127 147.367 54.0683 153.674C52.1796 161.386 57.6214 165.059 62.8179 165.007C76.5954 164.864 90.3755 164.886 104.156 164.908H104.157H104.157H104.157H104.158H104.158H104.158H104.158H104.159H104.159H104.159C109.974 164.917 115.788 164.926 121.603 164.923C128.166 164.918 131.766 160.363 130.311 153.946C128.787 147.236 123.252 142.848 115.978 142.77C114.418 142.754 113.839 142.29 113.625 140.766C113.407 139.214 113.076 137.679 112.745 136.144L112.745 136.143C112.568 135.326 112.392 134.508 112.232 133.686C112.068 132.852 111.939 132.01 111.805 131.133L111.805 131.133L111.805 131.133L111.805 131.133L111.804 131.133L111.804 131.133L111.804 131.133L111.804 131.133L111.804 131.132L111.804 131.132L111.804 131.132C111.75 130.781 111.696 130.424 111.638 130.06C111.875 130.043 112.076 130.026 112.254 130.01C112.57 129.982 112.813 129.961 113.057 129.961C113.837 129.956 114.619 129.96 115.4 129.964H115.401C116.964 129.972 118.526 129.98 120.085 129.914C121.832 129.841 122.965 128.646 123.012 127.102C123.058 125.495 121.874 124.285 120.048 124.133C119.496 124.085 118.94 124.089 118.386 124.094C118.223 124.095 118.061 124.097 117.898 124.097H10.8731C6.7618 124.097 5.85918 123.178 5.85918 119.025V30.1463V27.9081H178.483V30.1307V68.4162C178.483 68.5839 178.48 68.752 178.477 68.92C178.468 69.4055 178.459 69.8908 178.525 70.3676C178.723 71.8441 179.636 72.7206 181.092 72.8719C182.548 73.018 183.643 72.3345 184.102 70.9258C184.322 70.2684 184.332 69.5171 184.332 68.8128C184.337 49.2787 184.342 29.7446 184.337 10.2105C184.337 3.77221 180.586 0 174.168 0C119.479 0 64.7953 0 10.1114 0.0104349C9.07834 0.0104349 8.0192 0.0678267 7.01745 0.302611ZM178.478 10.8471V21.8141H6.04179C6.02543 21.693 6.00343 21.5679 5.98093 21.4399C5.93168 21.1597 5.88005 20.866 5.88005 20.5724L5.87608 19.6652C5.86133 16.3251 5.84656 12.9813 5.88005 9.64182C5.90614 7.17397 7.17398 5.93744 9.61052 5.87483C9.86766 5.86788 10.1271 5.87019 10.3874 5.87251H10.3874H10.3874H10.3874H10.3874H10.3874H10.3875H10.3875H10.3875H10.3875H10.3875H10.3876H10.3877H10.3877H10.3878H10.3878H10.3879H10.388H10.388H10.3881H10.3882C10.5184 5.87367 10.6488 5.87483 10.7792 5.87483H173.579C177.549 5.87483 178.478 6.81397 178.478 10.8471ZM121.238 159.048H91.9678H91.9625C88.7103 159.048 85.4581 159.049 82.2059 159.049C75.7015 159.051 69.1971 159.052 62.6927 159.048C59.9588 159.048 59.2492 158.172 59.7136 155.427C60.3918 151.431 63.7571 148.671 68.2336 148.603C71.445 148.551 74.659 148.562 77.8738 148.573C79.2134 148.578 80.5532 148.582 81.8929 148.582C84.9622 148.582 88.0314 148.581 91.1007 148.58C99.2855 148.577 107.47 148.574 115.655 148.593C120.126 148.603 123.325 150.852 124.431 154.64C125.37 157.854 124.509 159.048 121.238 159.048ZM107.523 140.052L107.524 140.052C107.689 140.907 107.856 141.768 108.027 142.64H76.2946C76.4561 141.815 76.6154 140.996 76.7739 140.181L76.7753 140.173L76.7754 140.173C77.3947 136.989 78.0012 133.87 78.6737 130.765C78.7468 130.42 79.5294 129.992 79.9833 129.992C88.1121 129.945 96.2408 129.94 104.37 130.003C104.829 130.003 105.596 130.572 105.69 130.994C106.344 133.97 106.924 136.961 107.523 140.051L107.523 140.052ZM141.661 80.9262C141.206 80.7801 140.75 80.634 140.302 80.4738L140.297 80.4842C135.961 80.8025 129.867 85.8738 129.33 90.2982C129.1 92.2234 129.633 94.4043 130.363 96.2513C131.203 98.3748 130.003 101.745 127.744 102.314C123.888 103.29 121.53 106.222 121.436 110.187C121.41 111.491 121.42 112.796 121.431 114.095C121.472 118.65 123.742 121.514 128.182 122.625C129.836 123.038 131.365 126.763 130.478 128.224C128.213 131.949 128.631 135.794 131.646 138.925C132.455 139.765 133.29 140.594 134.13 141.408C137.271 144.45 141.111 144.888 144.82 142.645C146.391 141.69 150.038 143.229 150.507 145.045C151.593 149.25 154.634 151.619 159.001 151.66C160.043 151.671 161.08 151.666 162.121 151.661L162.127 151.66C166.807 151.64 169.624 149.464 170.876 144.904C171.335 143.234 175.056 141.742 176.532 142.634C180.174 144.841 184.009 144.46 187.103 141.565C188.052 140.678 188.976 139.754 189.863 138.805C192.732 135.737 193.108 131.819 190.911 128.229C190.009 126.758 191.511 123.053 193.186 122.615C197.626 121.446 199.953 118.457 199.984 113.85C199.995 112.744 200.005 111.638 199.984 110.531C199.906 106.404 197.496 103.342 193.53 102.304C191.423 101.756 189.93 98.1922 191.037 96.3661C193.003 93.1208 192.711 89.2391 190.207 86.406C189.132 85.1851 187.974 84.032 186.763 82.9468C183.878 80.359 179.97 80.0564 176.647 82.0859C174.936 83.1294 171.325 81.6268 170.809 79.6598C169.729 75.5381 166.718 73.1589 162.476 73.0911C161.24 73.0702 160.003 73.065 158.767 73.0911C154.681 73.1746 151.614 75.6111 150.554 79.5868C149.996 81.6894 146.532 83.0355 144.617 82.0546C143.685 81.576 142.673 81.2512 141.661 80.9262ZM139.548 86.7585L139.548 86.7584L139.549 86.7578L139.549 86.7577L139.55 86.7575L139.551 86.757C139.755 86.6588 139.968 86.5561 140.187 86.4373H140.198C140.43 86.5654 140.665 86.6811 140.897 86.7952C141.373 87.0297 141.834 87.2571 142.227 87.5695C144.121 89.0669 146.125 89.166 148.269 88.2425C148.443 88.1672 148.616 88.0917 148.789 88.0162L148.791 88.0157C150.046 87.4693 151.3 86.9231 152.579 86.4373C154.739 85.6129 155.892 84.0529 156.215 81.7938C156.549 79.4616 157.149 78.9659 159.534 78.945L159.539 78.945C160.32 78.9398 161.095 78.9346 161.876 78.945C164.224 78.9711 164.928 79.5346 165.205 81.8146C165.487 84.1207 166.708 85.6234 168.842 86.4425C169.094 86.539 169.347 86.6326 169.601 86.7263C170.445 87.0382 171.291 87.3505 172.082 87.7677C174.748 89.1764 177.226 89.3225 179.657 87.2147C180.711 86.3016 181.943 86.4008 182.991 87.4338C183.409 87.8408 183.831 88.253 184.243 88.6651C186.063 90.4843 186.316 92.4826 185.005 94.66C184.03 96.2878 184.024 97.9835 184.75 99.7104L184.751 99.7147C185.403 101.268 186.054 102.821 186.69 104.385C187.525 106.431 188.991 107.61 191.214 107.876C193.489 108.147 194.104 108.867 194.136 111.168C194.146 111.949 194.141 112.724 194.136 113.505L194.136 113.511C194.11 115.973 193.635 116.511 191.136 116.897C188.96 117.236 187.457 118.399 186.664 120.481C186.601 120.648 186.537 120.815 186.474 120.983L186.472 120.987L186.47 120.992L186.47 120.993C186.052 122.098 185.633 123.205 185.104 124.258C183.878 126.711 183.904 128.97 185.73 131.145C186.831 132.46 186.67 133.765 185.433 134.949C185.104 135.263 184.783 135.587 184.463 135.911C184.325 136.05 184.188 136.189 184.05 136.326C181.64 138.732 181.551 138.737 178.656 136.843C177.069 135.81 175.389 135.638 173.636 136.347C171.951 137.026 170.266 137.709 168.596 138.424C166.655 139.253 165.502 140.693 165.215 142.833C164.882 145.332 164.339 145.78 161.808 145.796H160.05C156.894 145.791 156.784 145.697 156.148 142.53C155.761 140.61 154.687 139.222 152.866 138.46C152.453 138.29 152.03 138.14 151.606 137.989C150.862 137.725 150.118 137.461 149.433 137.088C146.714 135.617 144.142 135.356 141.721 137.641C141.627 137.725 141.518 137.808 141.398 137.855C139.283 138.672 138.24 137.441 137.206 136.219C136.826 135.771 136.448 135.325 136.019 134.98C134.808 134.01 134.427 132.643 135.476 131.365C137.537 128.855 137.563 126.335 135.982 123.606C135.555 122.873 135.274 122.051 134.995 121.234L134.995 121.234L134.989 121.214L134.914 120.996C134.882 120.904 134.851 120.813 134.819 120.721C133.999 118.394 132.387 117.069 129.93 116.876C127.989 116.725 127.139 115.728 127.279 113.808C127.308 113.409 127.3 113.008 127.292 112.608V112.608C127.288 112.421 127.285 112.235 127.285 112.05C127.285 110.31 127.285 109.436 127.711 108.904C128.142 108.368 129.007 108.18 130.744 107.802L130.744 107.802L130.744 107.802L130.791 107.792C132.638 107.391 133.921 106.258 134.646 104.521C134.832 104.079 134.997 103.628 135.163 103.176C135.446 102.406 135.729 101.636 136.107 100.916C137.474 98.307 137.615 95.8809 135.56 93.5173C134.568 92.3747 134.673 91.133 135.773 90.0321C136.044 89.7628 136.311 89.489 136.578 89.2152C137.175 88.6031 137.772 87.991 138.413 87.4286C138.728 87.1529 139.117 86.9658 139.548 86.7585ZM61.8788 68.839H20.8906C16.5445 68.839 15.0575 67.3416 15.0523 62.9537C15.0419 55.3415 15.0366 47.724 15.0523 40.1118C15.0627 36.0109 16.6488 34.43 20.7184 34.43H103.295C107.307 34.43 108.951 36.0891 108.951 40.1379C108.956 47.8805 108.961 55.6284 108.951 63.3711C108.945 67.159 107.27 68.8338 103.462 68.839C94.2218 68.8459 84.9843 68.8436 75.7459 68.8413H75.7453H75.7448H75.7442H75.7436H75.743H75.7425H75.7419H75.7413H75.7407C71.1204 68.8401 66.4999 68.839 61.8788 68.839ZM20.9793 62.7972H102.977V40.4509H20.9793V62.7972ZM87.4962 79.5063C84.8944 79.5074 82.2927 79.5086 79.6909 79.5086C77.2316 79.5086 74.7718 79.5066 72.3118 79.5046H72.3112H72.3107H72.3101H72.3095H72.309H72.3084H72.3078H72.3072C66.7682 79.5002 61.2282 79.4958 55.6907 79.5138C51.7463 79.5242 50.108 81.1782 50.0976 85.1069C50.082 92.8444 50.082 100.587 50.0976 108.33C50.1028 112.243 51.7828 113.965 55.6594 113.965C71.5934 113.985 87.5327 113.985 103.467 113.965C107.249 113.965 108.945 112.227 108.95 108.46C108.957 103.343 108.955 98.2243 108.953 93.106V93.1054V93.1049V93.1043V93.1037V93.1032V93.1026V93.102V93.1014C108.951 90.5441 108.95 87.987 108.95 85.4304C108.95 81.0999 107.401 79.5138 103.107 79.5086C97.9032 79.5016 92.6997 79.504 87.4962 79.5063ZM56.1081 107.965V85.4982H103.002V107.965H56.1081ZM42.9447 96.6479C42.9447 97.8824 42.9466 99.117 42.9486 100.351L42.9486 100.366C42.9531 103.158 42.9575 105.95 42.9394 108.742C42.9134 112.149 41.1916 113.928 37.7637 113.959C31.9098 114.012 26.0558 114.012 20.2019 113.959C16.7636 113.928 15.0783 112.206 15.0627 108.731C15.0262 100.733 15.0262 92.7296 15.0627 84.7313C15.0783 81.2408 16.7323 79.5608 20.2175 79.5295C26.0715 79.4721 31.9254 79.4721 37.7794 79.5295C41.2333 79.566 42.9186 81.3191 42.9394 84.7469C42.9575 87.4919 42.9531 90.2393 42.9486 92.9875L42.9486 93.0012C42.9466 94.2166 42.9447 95.4323 42.9447 96.6479ZM36.9864 85.5452H21.0366V107.938H36.9864V85.5452ZM137.887 41.5371C140.337 41.5365 142.787 41.5359 145.238 41.5359L145.232 41.5411C147.231 41.5411 149.23 41.54 151.229 41.5388L151.248 41.5388H151.248H151.249H151.249H151.25H151.25H151.251C156.594 41.5357 161.936 41.5326 167.281 41.5516C168.831 41.5568 170.14 41.2542 170.74 39.6315C171.549 37.4559 169.989 35.6872 167.167 35.6872C152.532 35.6715 137.902 35.6767 123.267 35.6872C120.757 35.6924 119.474 36.7098 119.453 38.6089C119.432 40.5394 120.669 41.5359 123.189 41.5359C128.088 41.5394 132.985 41.5382 137.883 41.5371H137.884H137.885H137.885H137.886H137.886H137.887ZM150.43 48.7301L150.437 48.7301H150.437C156.036 48.7206 161.633 48.7112 167.229 48.7986C168.32 48.8143 169.697 49.3569 170.407 50.1447C171.664 51.5326 170.782 53.8021 168.941 54.35C168.153 54.5848 167.276 54.59 166.436 54.59C155.098 54.6025 143.756 54.6017 132.416 54.6008H132.407H132.406C129.572 54.6006 126.738 54.6004 123.904 54.6004C123.786 54.6004 123.669 54.6018 123.551 54.6032C123.278 54.6065 123.005 54.6098 122.735 54.5952C120.596 54.4804 119.401 53.3691 119.458 51.5482C119.511 49.7899 120.632 48.7725 122.751 48.7569C127.234 48.7301 131.714 48.7342 136.196 48.7383H136.196H136.197H136.197H136.198H136.198C137.829 48.7397 139.459 48.7412 141.09 48.7412H145.186V48.736C146.934 48.736 148.682 48.7331 150.43 48.7301ZM137.128 61.7247C136.055 61.7262 134.983 61.7276 133.911 61.7276V61.7328C132.697 61.7328 131.483 61.731 130.27 61.7293C127.844 61.7258 125.418 61.7223 122.991 61.7328C120.679 61.7432 119.427 62.8023 119.448 64.6702C119.469 66.4493 120.721 67.5711 122.865 67.5763C130.144 67.6024 137.427 67.6076 144.706 67.5763C146.824 67.5659 148.076 66.3867 148.06 64.6024C148.045 62.8076 146.813 61.7484 144.638 61.7328C142.136 61.7182 139.631 61.7215 137.128 61.7247ZM23.8437 13.9881C23.7967 15.6263 22.4193 16.9046 20.781 16.8211C19.2367 16.7429 17.9845 15.4333 17.9793 13.8942C17.9793 12.2767 19.3358 10.9411 20.9689 10.962C22.6071 10.9828 23.8906 12.3341 23.8384 13.9828L23.8437 13.9881ZM33.7569 16.8313C35.39 16.8626 36.7309 15.5478 36.7361 13.9043H36.7413C36.7465 12.2661 35.4161 10.9408 33.7778 10.9669C32.223 10.9878 30.9343 12.2452 30.8769 13.7896C30.8195 15.407 32.1343 16.8 33.7569 16.8313ZM46.6075 10.9671C48.2458 10.9149 49.6024 12.2088 49.6232 13.8523C49.6441 15.4175 48.4441 16.7271 46.8893 16.8262C45.2667 16.9306 43.8475 15.6628 43.764 14.0401C43.6806 12.4227 44.9797 11.0245 46.6075 10.9723V10.9671ZM140.12 112.3C140.052 123.695 149.193 132.919 160.603 132.977H160.609C171.998 133.034 181.243 123.872 181.28 112.488C181.311 101.067 172.17 91.8425 160.791 91.8111C149.365 91.7851 140.187 100.879 140.12 112.3ZM175.41 112.31C175.442 120.517 168.92 127.091 160.723 127.118L160.718 127.112C152.532 127.138 145.963 120.57 145.974 112.373C145.984 104.25 152.469 97.7121 160.556 97.6703C168.779 97.6286 175.379 104.135 175.41 112.31Z" fill="white"/>
</g>
<defs>
<clipPath id="clip0_324_50">
<rect width="200" height="165.007" fill="white"/>
</clipPath>
</defs>
</svg>
