<svg width="200" height="194" viewBox="0 0 200 194" fill="none" xmlns="http://www.w3.org/2000/svg">
<g clip-path="url(#clip0_324_37)">
<path fill-rule="evenodd" clip-rule="evenodd" d="M63.9041 125.007C65.1457 124.038 66.3362 123.11 67.6003 122.126H67.5928C52.9522 102.394 58.9159 79.2756 71.6701 67.3407C85.5365 54.3611 106.111 52.3507 121.86 62.6321C129.661 67.724 135.208 74.6535 138.24 83.4769C142.239 95.1112 140.976 106.332 135.148 117.166C136.384 117.876 137.575 118.556 138.793 119.252L139.643 119.737L140.345 120.138C143.193 115.302 145.027 110.206 145.88 104.814C146.139 103.161 146.786 102.954 148.146 102.965C152.591 103 157.039 102.997 161.485 102.993H161.487H161.487H161.488C162.795 102.992 164.102 102.991 165.41 102.991H169.1C169.185 103.267 169.262 103.523 169.334 103.764L169.336 103.77L169.336 103.772L169.337 103.774L169.337 103.776C169.461 104.189 169.572 104.563 169.697 104.93C172.091 112.052 179.325 116.437 186.799 115.306C194.3 114.171 199.858 107.839 199.989 100.278C200.124 92.5747 194.657 85.9796 187.025 84.6418C179.58 83.3379 172.162 87.7308 169.791 95.0511C169.276 96.6444 168.544 96.9939 167.033 96.9676C163.587 96.9041 160.139 96.9136 156.693 96.9231H156.692H156.692H156.692H156.691H156.691H156.69C155.447 96.9266 154.203 96.93 152.96 96.93H146.62C146.436 86.0548 143.114 76.4046 136.444 67.8104C140.101 64.0717 143.707 60.3817 147.267 56.7387L147.317 56.6879L150.807 53.1173C151.123 53.2868 151.382 53.4264 151.604 53.5463C152.008 53.7639 152.291 53.9164 152.576 54.0643C160.246 58.0137 169.724 54.9586 173.598 47.2926C177.506 39.5515 174.263 29.999 166.443 26.2261C160.566 23.389 153.283 24.6929 148.612 29.4128C143.9 34.1777 142.825 41.2387 145.985 47.4317C146.564 48.5665 146.579 49.2429 145.602 50.1373C144.169 51.4535 142.806 52.8483 141.442 54.2434L141.442 54.2435L141.442 54.2436L141.442 54.2437L141.442 54.2438L141.442 54.2438L141.442 54.2439L141.442 54.244L141.442 54.2443C140.968 54.729 140.494 55.2137 140.018 55.6952C138.438 57.2919 136.864 58.8901 135.296 60.4812L135.284 60.4935L135.277 60.5004C134.369 61.4231 133.462 62.3434 132.558 63.2597C124.101 56.8864 114.27 52.4772 103.067 50.0321V48.0818C103.067 46.6394 103.072 45.197 103.077 43.7547V43.7545V43.7542V43.7539V43.7536V43.7534V43.7531V43.7528V43.7525C103.091 40.1904 103.104 36.6288 103.037 33.0692C103.007 31.4796 103.356 30.7168 105.04 30.1756C111.571 28.0825 115.772 21.8182 115.547 14.9263C115.329 8.2223 110.609 2.31121 104.066 0.53751C97.5428 -1.22868 90.557 1.48073 86.8969 7.20017C83.2705 12.867 83.7891 20.3226 88.1595 25.561C90.4518 28.3042 93.4393 29.9013 96.9641 30.8558C96.9641 32.4866 96.9631 34.1139 96.962 35.7387C96.959 40.198 96.9561 44.6387 96.9754 49.0813C96.9788 50.2104 96.2814 50.2617 95.5467 50.3157C95.4744 50.321 95.4018 50.3263 95.3295 50.3327C88.4263 50.9415 81.9666 53.0008 76.063 56.5895C73.9745 57.8598 71.9991 59.3221 70.0426 60.7706C69.1687 61.4175 68.2985 62.0617 67.4237 62.6847C65.1449 60.4059 62.8456 58.1057 60.5329 55.7921L60.5177 55.7769L60.5024 55.7616L60.487 55.7462C58.162 53.4203 55.8235 51.0808 53.4783 48.7356C57.488 40.3256 56.0262 32.4905 49.4838 27.703C43.4374 23.28 35.0123 23.8662 29.492 29.1009C24.1784 34.1402 23.2502 42.7118 27.3538 48.8784C31.9722 55.8154 39.5443 57.3937 48.5105 53.5645L50.5977 55.6404C54.7611 59.7814 58.8512 63.8494 62.9744 67.9532C56.7702 75.995 53.2566 85.2506 53.0312 95.6711C53.0031 96.9469 52.2886 96.9412 51.4608 96.9347L51.361 96.934L51.28 96.9338C49.7414 96.9318 48.2022 96.9228 46.6629 96.9139H46.6622H46.6615H46.6608H46.6601H46.6594H46.6587H46.6581H46.6574H46.6568C42.3182 96.8887 37.9783 96.8636 33.6444 96.9939C31.5325 97.054 30.6908 96.4152 29.9956 94.431C27.3801 86.9642 19.1241 82.8644 11.4431 84.9913C3.7846 87.1107 -1.16824 94.9045 0.237198 102.631C1.49983 109.571 7.55372 115.122 14.2577 115.482C21.8711 115.896 28.1956 111.586 30.3901 104.438C30.7133 103.39 31.2056 102.946 32.3517 102.954C38.8528 103.003 45.3576 103.003 51.8587 102.954C53.0349 102.946 53.4558 103.405 53.6963 104.498C53.7645 104.806 53.8321 105.115 53.8998 105.423L53.8999 105.424C54.4331 107.854 54.9678 110.291 55.7481 112.645C57.3264 117.406 59.7953 121.713 62.9331 125.764L63.9041 125.007ZM184.466 90.474C189.599 90.4815 193.913 94.7655 193.947 99.8837V99.8874C193.977 104.972 189.595 109.492 184.646 109.47C179.366 109.447 174.992 105.197 174.954 100.053C174.913 94.8557 179.272 90.4665 184.466 90.474ZM109.504 15.4787C109.553 20.7171 105.261 25.0048 99.9779 24.9936V24.9898C94.8184 24.9785 90.5269 20.7134 90.5157 15.5802C90.5044 10.3755 94.871 6.00517 100.061 6.02772C105.209 6.05027 109.455 10.3004 109.504 15.4787ZM169.224 40.3068C169.201 45.579 164.951 49.6939 159.57 49.6525H159.566C154.35 49.615 150.194 45.4024 150.228 40.194C150.265 34.9744 154.617 30.7205 159.874 30.7769C164.981 30.8295 169.246 35.1773 169.224 40.3068ZM25.069 99.9363C25.0766 105.073 20.7776 109.41 15.7082 109.372V109.368C10.218 109.331 6.0581 105.212 6.03555 99.801C6.01676 94.8481 10.5525 90.4364 15.6406 90.4627C20.7513 90.4928 25.0615 94.8218 25.069 99.9363ZM40.2808 30.7694C45.553 30.7543 49.7167 34.9519 49.7506 40.3105C49.7844 45.4438 45.6921 49.5924 40.5363 49.6488C35.1476 49.7089 30.8599 45.6204 30.8148 40.3744C30.7697 35.1585 35.0799 30.7844 40.2808 30.7694ZM95.3062 193.555H140.46V193.548C140.46 192.61 140.465 191.682 140.469 190.762V190.76C140.479 188.712 140.488 186.698 140.449 184.687C140.378 180.993 141.054 177.491 142.768 174.191C143.161 173.436 143.558 172.682 143.955 171.927C145.394 169.198 146.833 166.467 148.066 163.647C148.265 163.191 148.471 162.732 148.677 162.272C149.884 159.577 151.127 156.803 151.377 153.985C151.899 148.068 151.837 142.091 151.775 136.131V136.131L151.764 135.141C151.76 134.743 151.756 134.346 151.753 133.949C151.73 131.209 150.283 128.958 148.111 127.237C144.902 124.693 141.411 124.467 137.766 126.035C132.347 119.518 130.48 118.902 123.137 121.243C120.134 116.952 115.963 115.783 110.74 117.207C110.74 116.868 110.742 116.556 110.743 116.263C110.746 115.724 110.749 115.245 110.74 114.768C110.707 113.081 110.68 111.394 110.653 109.706C110.587 105.583 110.521 101.458 110.371 97.3358C110.127 90.6394 103.882 86.0849 97.7375 88.0089C93.4836 89.3391 90.7892 93.2022 90.7704 98.249C90.7461 104.638 90.7564 111.025 90.7667 117.413V117.413V117.414V117.414V117.415V117.415V117.415V117.416V117.416C90.7723 120.901 90.778 124.386 90.778 127.872C90.778 128.343 90.7228 128.815 90.6676 129.288L90.6676 129.288C90.6425 129.502 90.6175 129.717 90.5976 129.931C89.66 128.368 89.0215 126.788 88.387 125.219L88.387 125.219C88.3248 125.065 88.2625 124.911 88.2001 124.757C86.4377 120.424 82.8489 118.113 78.2305 118.312C71.3349 118.609 67.3967 124.663 69.9708 130.999C71.0802 133.731 72.1885 136.464 73.2968 139.196L73.297 139.197L73.2971 139.197L73.2973 139.197L73.2974 139.198L73.2976 139.198L73.2978 139.199L73.2979 139.199L73.2981 139.199C75.0536 143.528 76.8091 147.856 78.5687 152.182C78.8497 152.873 79.1287 153.565 79.4076 154.257L79.4095 154.262C82.7297 162.503 86.0535 170.753 92.9162 176.916C94.859 178.659 95.4978 180.636 95.355 183.191C95.2186 185.57 95.2488 187.959 95.2795 190.384V190.385V190.386V190.387V190.387V190.388V190.389V190.39V190.391C95.2928 191.438 95.3062 192.492 95.3062 193.555ZM118.483 129.561C118.467 130.123 118.451 130.693 118.451 131.273H124.437C124.46 131.001 124.484 130.741 124.507 130.487L124.522 130.322C124.538 130.145 124.553 129.971 124.568 129.796C124.756 127.605 126.248 126.095 128.27 126.057C130.371 126.019 132.024 127.545 132.152 129.807C132.218 130.988 132.206 132.174 132.194 133.359V133.36V133.36V133.36V133.36V133.361V133.361V133.361V133.361C132.187 133.99 132.18 134.618 132.186 135.245C132.188 135.494 132.219 135.742 132.253 136.025V136.025C132.27 136.156 132.287 136.295 132.302 136.444H138.014C138.049 136.185 138.078 135.929 138.106 135.676C138.167 135.122 138.227 134.581 138.356 134.057C138.807 132.242 140.423 131.081 142.238 131.19C144.057 131.295 145.714 132.671 145.71 134.505C145.695 140.874 145.665 147.251 145.334 153.61C145.237 155.506 144.335 157.433 143.503 159.209L143.482 159.254C141.148 164.229 138.687 169.145 136.188 174.041C135.921 174.56 135.098 175.112 134.531 175.112C123.216 175.176 111.897 175.176 100.578 175.112C99.8945 175.108 99.0978 174.575 98.5454 174.079C92.1345 168.31 88.4857 160.84 85.4193 152.959C82.3153 144.985 79.0572 137.071 75.7278 129.187C74.6004 126.516 74.8748 125.944 77.2272 124.757C79.3804 123.667 81.5562 124.58 82.4581 126.801C83.8305 130.188 85.1839 133.582 86.5373 136.976C86.9886 138.108 87.4399 139.239 87.8919 140.371C88.2346 141.227 88.5753 142.084 88.9159 142.941L88.9167 142.943C89.4985 144.407 90.0804 145.871 90.6727 147.33C91.507 149.386 92.5667 150.088 94.3141 149.795C95.9939 149.514 96.7868 148.386 96.7868 146.18C96.7894 140.594 96.7897 135.008 96.79 129.421V129.368C96.7905 119.279 96.791 109.191 96.8055 99.102C96.8055 98.1175 96.8619 97.0765 97.1813 96.1634C97.7112 94.6339 98.8648 93.6719 100.563 93.6644C102.262 93.6569 103.431 94.5964 103.979 96.1221C104.306 97.0352 104.385 98.0761 104.404 99.0607C104.473 102.768 104.532 106.474 104.591 110.18L104.591 110.182L104.591 110.183L104.591 110.185L104.591 110.187L104.591 110.188L104.591 110.19L104.591 110.192L104.591 110.193C104.672 115.297 104.754 120.4 104.862 125.505C104.885 126.455 105.05 127.688 105.652 128.263C106.35 128.928 107.628 129.338 108.613 129.27C110.086 129.169 110.571 127.823 111.025 126.512C111.431 125.336 111.923 123.934 112.837 123.242C114.982 121.623 118.082 123.182 118.413 125.971C118.552 127.141 118.518 128.332 118.483 129.561ZM101.319 181.32C101.319 181.802 101.328 182.272 101.337 182.733C101.356 183.759 101.375 184.742 101.292 185.717C101.161 187.291 101.747 187.727 103.299 187.716C110.154 187.671 117.008 187.674 123.863 187.678C126.764 187.679 129.664 187.68 132.565 187.678C132.963 187.678 133.359 187.642 133.758 187.605H133.758H133.758H133.758H133.758H133.758H133.759H133.759H133.759C133.963 187.587 134.167 187.568 134.373 187.554V181.32H101.319ZM74.2776 114.855L74.2759 114.856C64.1018 99.4155 68.8105 82.003 79.9857 72.7179C91.5937 63.0753 108.309 63.0715 120.059 72.7442C131.07 81.8081 135.981 99.1092 125.828 114.881C126.626 115.436 127.426 115.991 128.226 116.545L128.245 116.559L128.273 116.578C129.071 117.132 129.87 117.686 130.668 118.24C140.675 104.633 140.468 81.8194 123.787 67.9417C108.316 55.0748 85.1791 56.98 71.7899 72.282C58.6637 87.2871 61.174 108.113 69.5991 118.173C70.2686 117.698 70.9389 117.222 71.6206 116.739L71.65 116.718C72.5003 116.116 73.3687 115.5 74.2759 114.856L74.2776 114.858V114.855ZM121.015 115.236L121.017 115.238H121.014L121.015 115.236ZM119.338 76.5362C131.689 88.2787 129.634 106.394 121.015 115.236L119.377 113.784C118.474 112.983 117.58 112.191 116.651 111.368C121.01 105.75 123.001 99.5568 121.596 92.5559C120.548 87.3476 117.902 83.026 113.746 79.7003C105.37 72.9963 93.2167 73.2932 85.4831 80.3429C76.5094 88.5238 75.7165 99.6958 83.3937 111.405L83.0373 111.722C82.4367 112.257 81.8243 112.802 81.2067 113.344C80.7741 113.723 80.3373 114.098 79.9024 114.471C79.6344 114.701 79.3673 114.93 79.1023 115.159C71.1093 107.305 68.3962 90.5267 78.8204 78.4866C89.2748 66.4126 107.711 65.4844 119.338 76.5362ZM82.9696 104.198C79.4973 96.3888 81.9437 87.1408 88.6965 82.0038C95.5696 76.7766 105.111 76.9344 111.8 82.3833C118.271 87.6556 120.537 96.8698 117.061 104.156C116.44 103.886 115.819 103.616 115.194 103.343L115.193 103.343L115.18 103.337L115.178 103.337C114.059 102.849 112.926 102.356 111.758 101.849C113.806 95.2765 112.273 89.8915 106.509 86.0886C102.383 83.3641 96.6895 83.6084 92.755 86.5921C87.6631 90.4552 86.3516 95.5658 88.2869 101.789C86.5433 102.578 84.8184 103.36 82.9696 104.198ZM185.998 102.991H185.998H185.999C186.434 102.985 186.87 102.98 187.306 102.98V97.0649H181.417C181.417 97.5292 181.411 97.9841 181.406 98.4319C181.391 99.5938 181.376 100.708 181.466 101.815C181.496 102.228 182.105 102.897 182.492 102.927C183.654 103.02 184.824 103.006 185.998 102.991ZM97.0723 18.5224V12.6226H103.036C103.036 13.0432 103.038 13.4656 103.041 13.889V13.8893C103.048 15.1641 103.055 16.4489 102.998 17.7295C102.987 18.0038 102.469 18.4735 102.172 18.4848C100.948 18.5401 99.7216 18.5323 98.4576 18.5244H98.4575L98.4568 18.5244C98.002 18.5215 97.5423 18.5186 97.076 18.5186L97.0723 18.5224ZM157.643 38.107L157.64 38.1095C156.966 38.7841 156.3 39.4514 155.631 40.1225C156.577 41.1305 157.473 42.0841 158.36 43.028L158.985 43.6933L159.716 44.4703L163.77 40.4156C162.953 39.5562 162.146 38.7074 161.333 37.8535L161.321 37.8405L161.307 37.8263C160.76 37.2517 160.211 36.6746 159.656 36.0903C158.971 36.7765 158.303 37.4453 157.643 38.107ZM12.6455 96.9863H18.4401V102.852H12.6455V96.9863ZM42.2275 42.3872C42.8834 41.676 43.5154 40.9908 44.1095 40.3444L44.1133 40.3407C42.9116 39.0685 41.6901 37.7699 40.5603 36.5689L40.3366 36.3311L36.3232 40.1828C36.818 40.7118 37.3128 41.2401 37.8117 41.7729C38.6313 42.6481 39.4619 43.5351 40.3216 44.4555C40.9705 43.7501 41.6096 43.0571 42.2275 42.3872Z" fill="white"/>
</g>
<defs>
<clipPath id="clip0_324_37">
<rect width="200" height="193.555" fill="white"/>
</clipPath>
</defs>
</svg>
