<svg width="200" height="200" viewBox="0 0 200 200" fill="none" xmlns="http://www.w3.org/2000/svg">
<g clip-path="url(#clip0_325_64)">
<path fill-rule="evenodd" clip-rule="evenodd" d="M199.602 23.312V0H176.558V6.80648H188.3C188.033 7.08864 187.803 7.33407 187.597 7.55432L187.595 7.55661C187.187 7.99203 186.871 8.32897 186.546 8.6567C184.645 10.5606 182.741 12.4614 180.838 14.362L180.835 14.3646L180.831 14.369L180.822 14.3782L180.809 14.3911L180.805 14.3947L180.805 14.3952C177.329 17.8658 173.854 21.3358 170.396 24.8231C166.683 28.5654 166.39 33.9403 169.609 38.1263C169.996 38.6294 170.406 39.1135 170.817 39.5983L170.818 39.5988L170.818 39.5996C170.954 39.7598 171.09 39.9201 171.225 40.0812C183.122 54.2718 190.33 70.5639 192.469 88.9321C195.161 112.068 189.924 133.379 176.818 152.694C176.028 153.859 175.201 155 174.358 156.161L174.358 156.162L174.355 156.166L174.355 156.166C173.97 156.697 173.582 157.232 173.193 157.776C174.183 158.522 175.134 159.238 176.062 159.938C176.809 160.501 177.542 161.053 178.27 161.602C178.311 161.578 178.349 161.557 178.385 161.538L178.436 161.512C178.53 161.464 178.606 161.424 178.664 161.367C178.844 161.187 179.015 160.99 179.17 160.781C199.133 133.739 204.856 103.973 195.881 71.5601C192.113 57.9597 185.294 45.883 176.064 35.1836C173.699 32.4375 173.791 30.7338 176.378 28.1427C181.393 23.1236 186.412 18.1046 191.431 13.0897C191.706 12.8148 191.992 12.5489 192.393 12.1759L192.395 12.1741L192.397 12.1722L192.406 12.1639C192.612 11.9717 192.849 11.7511 193.131 11.4865V23.312H199.602ZM0.472304 90.2096C0.318825 91.3991 0.16536 92.5885 0 93.7753V106.275C0.141898 107.333 0.274889 108.394 0.407913 109.454L0.407926 109.454C0.702639 111.804 0.997514 114.155 1.38976 116.489C4.47068 134.761 12.1102 150.898 24.1952 164.938C26.2255 167.299 26.0957 169.141 23.852 171.393C18.7492 176.508 13.6381 181.619 8.52694 186.726C8.2768 186.976 8.01313 187.213 7.66388 187.526C7.46373 187.706 7.23548 187.911 6.96555 188.158V176.508H0.422789V199.489H23.3915V192.976H11.7209C11.9589 192.717 12.1637 192.491 12.348 192.288C12.6953 191.904 12.97 191.601 13.2571 191.314C15.2937 189.276 17.331 187.238 19.3683 185.2L19.3726 185.196L19.3812 185.188C22.4485 182.12 25.5161 179.052 28.5822 175.981C33.5803 170.974 33.7854 166.102 29.2268 160.651C3.34464 129.708 -0.519068 87.9986 19.3604 53.1541C20.8495 50.5418 22.5434 48.0446 24.2678 45.5027C25.0689 44.3217 25.8766 43.131 26.6734 41.9147L21.692 38.164C21.5854 38.2551 21.4942 38.3269 21.4158 38.3885L21.4158 38.3886L21.4157 38.3886L21.4157 38.3887L21.4156 38.3887C21.2818 38.494 21.1856 38.5697 21.1143 38.6621C11.0009 51.7058 4.44556 66.3401 1.57395 82.5987C1.12896 85.1202 0.800599 87.6652 0.472304 90.2096ZM101.557 0C102.854 0.122753 104.153 0.230196 105.452 0.337646C108.229 0.5673 111.006 0.79699 113.764 1.17627C130.721 3.49952 146.05 9.85809 159.814 20.026C160.014 20.1732 160.194 20.35 160.397 20.5502C160.501 20.6516 160.61 20.7589 160.731 20.8715C159.441 22.5878 158.202 24.2413 156.892 25.9952C156.721 25.887 156.555 25.7854 156.395 25.6871C156.035 25.4661 155.701 25.2613 155.385 25.0324C137.126 11.8883 116.723 5.85207 94.3027 7.15811C73.946 8.34694 55.8582 15.593 40.1732 28.691C37.1174 31.2403 33.8104 33.2496 29.7039 32.044C27.8621 31.504 26.0077 30.3696 24.6137 29.0343C20.753 25.3423 16.9899 21.5527 13.226 17.7623L13.226 17.7623C11.7621 16.2881 10.2981 14.8138 8.8282 13.3451C8.52069 13.0375 8.20162 12.7416 7.80676 12.3753C7.57274 12.1582 7.3121 11.9165 7.01146 11.633V23.3078H0.38917V0H23.4374V6.81485H11.7375C11.9875 7.08037 12.2008 7.31016 12.391 7.51513C12.7647 7.91768 13.0496 8.22456 13.3491 8.51857C18.6499 13.732 23.9548 18.9372 29.2638 24.1465L29.2692 24.1518L29.3732 24.2538C31.4202 26.2631 32.6802 26.3092 34.9323 24.4631C35.1925 24.2506 35.4461 24.0279 35.6999 23.805C35.9359 23.5977 36.1721 23.3903 36.4141 23.1906C50.9899 11.0972 67.6461 3.69208 86.4162 1.16372C89.3348 0.771877 92.2772 0.546615 95.2189 0.321413L95.219 0.321404C96.5512 0.219413 97.8833 0.117434 99.2129 0H101.557ZM160.835 56.4867L160.836 56.4855C161.814 54.7738 162.795 53.0563 163.804 51.3458L163.791 51.3416C162.929 50.4406 162.07 49.5414 161.213 48.644C157.307 44.5554 153.44 40.5069 149.517 36.5147C149.194 36.1882 148.085 36.2426 147.583 36.5356C144.637 38.2574 141.704 40.0018 138.772 41.7464C135.166 43.8913 131.561 46.0363 127.929 48.1393C127.184 48.5705 125.958 48.6207 125.116 48.3486C124.109 48.0228 123.135 47.5946 122.162 47.1665C121.109 46.7036 120.057 46.2409 118.963 45.9081C117.251 45.3891 116.723 44.3133 116.359 42.7393C115.487 38.9643 114.58 35.1989 113.674 31.4335L113.673 31.4319L113.673 31.4306C112.891 28.1823 112.108 24.934 111.348 21.6794C111.085 20.5534 110.712 20.0469 109.44 20.0594C103.257 20.1306 97.0741 20.118 90.8914 20.0678C89.69 20.0594 89.2211 20.4529 88.9407 21.6376C87.9951 25.6177 86.9742 29.5823 85.9537 33.5456L85.9537 33.546L85.9533 33.5473L85.9529 33.5487L85.9526 33.5501C85.6769 34.6207 85.4013 35.6911 85.1272 36.7617C84.9185 37.5739 84.774 38.4435 84.6294 39.3138C84.2925 41.3411 83.955 43.3721 82.804 44.69C81.6767 45.9816 79.8164 46.6179 77.9395 47.2599C76.9937 47.5834 76.0438 47.9084 75.1812 48.3193C73.9254 48.9221 72.9417 48.7923 71.7612 48.0807C68.8741 46.3379 65.9696 44.6225 63.0653 42.9071C59.7542 40.9516 56.4433 38.9961 53.1585 37.0003C51.8483 36.2008 51.0948 36.3263 50.0483 37.4189C46.7162 40.8975 43.2879 44.284 39.8428 47.6495C38.9901 48.4849 38.0581 49.241 37.1532 49.9752L37.1532 49.9752C36.7432 50.3078 36.3387 50.6359 35.9498 50.9649C37.0581 52.8402 38.1428 54.678 39.2107 56.4874L39.2191 56.5017L39.2256 56.5127L39.2269 56.5148L39.2275 56.5158C42.3441 61.7963 45.3179 66.8349 48.3195 71.8573C48.9013 72.8327 49.0688 73.6406 48.5581 74.729C47.5409 76.9057 46.6158 79.1327 45.8037 81.3931C45.3767 82.5945 44.6693 83.0759 43.4637 83.3564C40.0101 84.1631 36.5623 84.9972 33.1142 85.8314L33.1137 85.8315L33.1131 85.8316C29.2978 86.7546 25.4823 87.6777 21.6587 88.5638C20.5117 88.8275 20.181 89.2796 20.2271 90.3805C20.2801 91.7077 20.2688 93.0391 20.2575 94.3702C20.2527 94.9283 20.248 95.4865 20.248 96.0442V110.461C20.4753 110.526 20.6864 110.588 20.8863 110.647C21.3269 110.777 21.7137 110.89 22.1024 110.988C23.7971 111.418 25.4922 111.846 27.1873 112.274C32.6731 113.658 38.1586 115.042 43.6269 116.497C44.4097 116.702 45.2804 117.468 45.6446 118.205C46.2198 119.369 46.7044 120.577 47.1891 121.786C47.6003 122.811 48.0117 123.837 48.4785 124.836C49.0395 126.037 48.9013 126.945 48.2316 128.059C44.4432 134.355 40.7177 140.692 37.034 147.051C36.7242 147.587 36.5316 148.692 36.833 149.002C40.7079 152.985 44.6429 156.913 48.6091 160.873L48.6109 160.875L48.6131 160.877L48.6147 160.879L48.6163 160.88C49.5622 161.824 50.5099 162.771 51.459 163.72C53.0655 162.771 54.6678 161.827 56.2661 160.884C61.5521 157.768 66.7958 154.677 72.0124 151.547C73.0129 150.948 73.8166 150.831 74.8798 151.325C76.8807 152.254 78.911 153.15 80.9998 153.857C82.5235 154.372 83.2268 155.247 83.6035 156.813C85.3281 163.954 87.1616 171.066 89.0286 178.17C89.1835 178.752 89.8825 179.622 90.3388 179.627C95.8724 179.705 101.406 179.7 106.966 179.696H106.968H106.969C108.268 179.695 109.569 179.694 110.871 179.694C110.927 179.507 110.981 179.331 111.033 179.162C111.149 178.787 111.253 178.447 111.34 178.103C111.711 176.642 112.083 175.181 112.455 173.72L112.465 173.681L112.475 173.642C113.925 167.948 115.375 162.255 116.782 156.549C117.088 155.314 117.586 154.515 118.854 154.058C119.915 153.677 120.955 153.235 121.995 152.793L121.996 152.793C123.17 152.293 124.344 151.794 125.547 151.383C126.33 151.12 127.469 151.166 128.176 151.555C130.774 152.99 133.326 154.513 135.878 156.036C136.789 156.579 137.699 157.123 138.612 157.663C141.724 159.5 144.84 161.334 147.716 163.027L148.516 163.498L149.095 162.919C154.122 157.888 158.986 153.02 163.904 148.102C163.938 148.181 163.9 148.056 163.833 147.947C162.573 145.856 161.31 143.767 160.047 141.678C158.483 139.091 156.919 136.505 155.36 133.915C154.92 133.183 154.392 132.456 153.863 131.728L153.863 131.728C152.624 130.021 151.381 128.31 151.258 126.523C151.136 124.784 152.025 122.987 152.922 121.173C153.378 120.253 153.835 119.329 154.163 118.406C154.59 117.213 155.293 116.706 156.478 116.413C160.188 115.499 163.893 114.562 167.599 113.625L167.599 113.625L167.599 113.625C171.138 112.729 174.676 111.834 178.22 110.959C179.355 110.679 179.773 110.214 179.761 108.996C179.694 102.943 179.669 96.8856 179.773 90.8326C179.803 89.2754 179.237 88.7103 177.831 88.367C175.601 87.8234 173.379 87.244 171.158 86.6647L171.157 86.6645L171.156 86.6642L171.156 86.6642C167.151 85.62 163.147 84.576 159.098 83.7415C155.884 83.0801 154.356 81.5103 152.941 78.5885C151.086 74.7499 151.262 71.8531 153.661 68.3243C156.244 64.5242 158.531 60.5218 160.835 56.4867ZM58.1312 106.564L58.1273 106.572L58.1148 106.564H58.1312ZM61.3341 106.572C60.2872 106.568 59.222 106.564 58.1312 106.564C59.1217 104.416 59.9829 102.551 60.8483 100.687C62.1387 97.9011 63.4298 95.1163 64.7209 92.3316L64.7224 92.3284C68.1882 84.8527 71.6537 77.3778 75.1059 69.8941C76.8807 66.0513 79.6477 63.4183 84.0221 63.3681C95.023 63.2467 106.024 63.2634 117.021 63.3513C121.809 63.389 125.564 66.7546 126.41 71.4555C126.572 72.3465 126.569 73.2763 126.566 74.1937L126.565 74.4154L126.565 74.5699C126.567 81.44 126.568 88.3102 126.569 95.1805V95.2003V95.2005C126.571 110.656 126.574 126.113 126.594 141.571C126.594 142.254 126.749 143.292 127.197 143.564C133.631 147.499 140.119 151.346 146.628 155.155C147.018 155.381 147.922 155.281 148.244 154.975C150.147 153.173 152 151.315 153.88 149.429L153.886 149.423L153.891 149.418C154.427 148.881 154.965 148.341 155.507 147.8C154.561 146.213 153.621 144.632 152.684 143.056C149.798 138.201 146.94 133.395 144.033 128.62C143.376 127.54 143.346 126.686 143.845 125.564C145.582 121.642 147.29 117.703 148.868 113.718C149.5 112.119 150.429 111.323 152.133 110.917C155.823 110.031 159.499 109.077 163.174 108.122L163.175 108.122L163.175 108.122C165.978 107.394 168.781 106.667 171.59 105.969C172.778 105.676 173.143 105.161 173.109 103.981C173.03 101.314 172.992 98.6395 173.122 95.973C173.193 94.5707 172.67 94.081 171.389 93.7628C168.078 92.9424 164.774 92.0926 161.47 91.2428C158.166 90.3931 154.862 89.5433 151.551 88.7228C150.274 88.4047 149.6 87.7935 149.152 86.5628C148.944 85.9918 148.738 85.4186 148.532 84.8451L148.532 84.8449C147.527 82.0469 146.519 79.2396 145.167 76.6168C143.573 73.515 143.962 71.1122 145.85 68.2573C148.343 64.4862 150.622 60.5736 152.872 56.7117C153.814 55.0951 154.75 53.4873 155.695 51.9025C152.973 49.1765 150.379 46.5821 147.716 43.9195L147.71 43.9131L147.667 43.8704L147.646 43.8486C146.052 44.7991 144.452 45.7521 142.846 46.708L142.831 46.7172L142.829 46.718C138.133 49.514 133.393 52.3358 128.674 55.1969C127.678 55.7997 126.883 55.9044 125.803 55.4272C124.005 54.6317 122.195 53.8652 120.385 53.0987L120.385 53.0987L120.385 53.0986C117.947 52.0661 115.51 51.0337 113.102 49.9309C112.315 49.5709 111.516 48.6081 111.286 47.7709C109.49 41.1863 107.803 34.5724 106.162 27.9501C105.831 26.6189 105.358 25.991 103.847 26.0748C101.252 26.2171 98.6355 26.2129 96.0402 26.0748C94.6086 25.9994 94.1565 26.5854 93.8467 27.8454C93.1145 30.8069 92.3561 33.7613 91.5979 36.7156C90.6916 40.2465 89.7854 43.7771 88.9239 47.3188C88.5639 48.7923 87.9109 49.663 86.4709 50.2114C85.9687 50.4035 85.4636 50.593 84.9579 50.7826C82.4119 51.7375 79.8478 52.6992 77.5254 54.0542C74.0803 56.0676 71.3719 55.5402 68.1738 53.3844C64.5273 50.9248 60.7134 48.7163 56.9703 46.5489L56.9702 46.5488C55.4195 45.6509 53.881 44.76 52.3716 43.8612C51.0162 45.2124 49.6961 46.5294 48.3841 47.8384L48.3745 47.8479L48.3641 47.8583C47.0084 49.2108 45.6612 50.5548 44.2925 51.9193C45.1386 53.3399 45.9904 54.766 46.8451 56.1971C49.7454 61.0531 52.6799 65.9664 55.5446 70.9197C55.9757 71.669 56.0846 72.929 55.7706 73.7285C54.0794 78.0192 52.2711 82.268 50.3497 86.4624C49.9897 87.2494 49.0311 88.0028 48.1855 88.2749C46.4359 88.8453 44.644 89.287 42.8519 89.7289L42.8518 89.7289L42.8518 89.7289C42.1186 89.9097 41.3853 90.0904 40.6549 90.28C37.8859 90.9964 35.1184 91.7142 32.342 92.4342L32.2674 92.4536L32.2548 92.4569C30.355 92.9496 28.451 93.4434 26.5396 93.9386C26.5396 94.9138 26.5445 95.8733 26.5493 96.8215V96.8216V96.8217C26.5612 99.1541 26.5728 101.419 26.5103 103.684C26.4768 104.91 26.8996 105.337 28.0675 105.626C31.1392 106.384 34.2034 107.175 37.2676 107.966L37.2682 107.966C40.6847 108.847 44.1013 109.729 47.5283 110.566C49.119 110.955 50.0985 111.616 50.7139 113.211C52.2125 117.092 53.8283 120.93 55.5781 124.702C56.298 126.251 56.185 127.381 55.3018 128.817C52.5818 133.243 49.9291 137.714 47.3203 142.11L47.3198 142.111C46.3074 143.817 45.3015 145.512 44.3009 147.189C46.1102 149.001 47.8664 150.756 49.6301 152.519L49.6629 152.552L49.6688 152.558L49.7048 152.594L49.7413 152.63C50.6093 153.498 51.4795 154.368 52.359 155.247C52.513 155.158 52.6887 155.057 52.8777 154.95C53.1922 154.771 53.5433 154.571 53.8911 154.364C55.2839 153.534 56.6757 152.702 58.0676 151.87L58.0693 151.869C62.5378 149.198 67.0069 146.526 71.5101 143.916C72.1631 143.539 73.2682 143.438 73.9631 143.715C78.3668 145.473 82.737 147.327 87.0612 149.274C87.7477 149.583 88.4509 150.437 88.6477 151.174C90.477 157.951 92.2351 164.749 93.9221 171.56C94.2151 172.745 94.6965 173.13 95.8895 173.092C98.6188 173.008 101.356 173.004 104.09 173.092C105.308 173.13 105.76 172.707 106.041 171.535C107.154 166.911 108.354 162.305 109.553 157.7L109.553 157.7L109.837 156.608C110.007 155.958 110.133 155.267 110.258 154.574L110.259 154.574C110.571 152.854 110.885 151.125 111.876 150.006C112.916 148.829 114.706 148.286 116.46 147.754C117.05 147.575 117.636 147.398 118.188 147.197C119.457 146.737 119.955 146.13 119.951 144.69C119.907 125.714 119.909 106.741 119.912 87.7655V87.7653V87.765C119.912 83.2998 119.913 78.8344 119.913 74.3689C119.913 70.9239 118.95 69.9611 115.514 69.9569C112.668 69.9557 109.823 69.9599 106.977 69.9642C99.8641 69.9749 92.751 69.9856 85.6379 69.9108C83.1849 69.8857 81.8203 70.8192 80.8533 73.0127C78.3505 78.6731 75.7935 84.3103 73.2363 89.9479L73.2362 89.9482L73.2361 89.9484C72.0338 92.599 70.8315 95.2496 69.6347 97.9028C69.4644 98.2765 69.3246 98.6647 69.1576 99.1288C69.0702 99.3717 68.9752 99.6355 68.8645 99.9288C69.4748 99.9288 70.0625 99.9384 70.634 99.9477C71.9165 99.9685 73.1175 99.988 74.3105 99.8953C75.6877 99.7907 76.2193 100.31 76.5542 101.612C77.986 107.184 79.496 112.736 81.0056 118.285L81.0059 118.286L81.3891 119.695C82.0798 122.236 83.2519 123.111 85.8598 123.124C87.4939 123.132 89.128 123.129 90.7559 123.126C91.5675 123.125 92.3776 123.124 93.1853 123.124V142.953H86.6216V129.918C78.9612 129.206 76.8096 127.41 74.6914 120.16C74.359 119.019 74.0217 117.88 73.6845 116.74C72.8413 113.891 71.9981 111.042 71.2296 108.171C70.8989 106.932 70.3715 106.509 69.0989 106.534C66.5541 106.591 64.0093 106.582 61.3462 106.572H61.3458H61.3454L61.3341 106.572ZM40.8169 177.615L40.8313 177.596C41.6843 176.46 42.5107 175.359 43.2501 174.369C44.8931 175.34 46.5013 176.332 48.0968 177.315L48.0971 177.316C51.5092 179.42 54.863 181.488 58.3742 183.239C92.1094 200.084 131.73 195.228 160.492 170.89C166.177 166.081 171.008 166.269 176.253 171.51C178.739 173.994 181.224 176.481 183.708 178.967C186.192 181.454 188.677 183.94 191.163 186.425C191.479 186.741 191.807 187.044 192.222 187.428C192.45 187.639 192.704 187.875 192.997 188.149V176.479H199.527V199.54H176.604V192.754H188.225C188.036 192.515 187.882 192.311 187.748 192.134C187.503 191.81 187.324 191.573 187.115 191.364C181.879 186.107 176.638 180.857 171.384 175.616C169.22 173.456 167.378 173.364 165.076 175.336C150.797 187.542 134.434 195.416 115.882 198.309C88.275 202.612 63.0793 196.446 40.4245 180.033C40.2482 179.906 40.0927 179.752 39.938 179.599C39.909 179.571 39.8801 179.542 39.851 179.514C39.8265 179.489 39.8149 179.453 39.7878 179.369C39.7685 179.309 39.7413 179.225 39.6961 179.103H39.7003C40.0741 178.605 40.448 178.107 40.8169 177.615ZM100.067 96.4628H106.74V89.828H113.144V83.1555H106.564V76.7425H99.8996V83.3313H93.4866V89.9996H100.067V96.4628Z" fill="white"/>
</g>
<defs>
<clipPath id="clip0_325_64">
<rect width="200" height="199.636" fill="white"/>
</clipPath>
</defs>
</svg>
