<svg width="185" height="99" viewBox="0 0 185 99" fill="none" xmlns="http://www.w3.org/2000/svg">
<path d="M116 11.64C115.2 12.46 114.5 12.15 113.71 11.56C107.77 7.15998 101.04 4.91998 93.6897 5.17998C81.3897 5.60998 71.9997 11.25 65.6697 21.81C62.6097 26.92 61.1397 32.53 61.3897 38.49C61.6297 44.15 60.0597 49.26 57.1697 54.06C55.9797 56.04 54.9597 58.12 53.8797 60.17C53.2497 61.37 53.6297 61.96 55.0097 61.97C56.4897 61.98 57.9697 61.97 59.4397 61.97C61.1097 61.97 61.3497 62.21 61.3497 63.93C61.3497 69.36 61.3797 74.79 61.3497 80.21C61.3297 82.43 62.8797 83.28 64.3697 83.21C65.8097 83.14 67.2297 82.72 68.6597 82.47C70.7897 82.09 72.9097 81.6 75.0597 81.39C77.8197 81.13 79.4597 82.5 79.6497 85.44C79.7597 87.11 79.7297 88.79 79.6497 90.47C79.6097 91.48 79.9497 91.74 80.9397 91.74C88.5297 91.7 96.1197 91.72 103.7 91.72C107.61 91.72 111.53 91.69 115.44 91.74C116.41 91.75 116.64 91.44 116.63 90.52C116.6 82.7 116.64 74.87 116.6 67.05C116.59 64.24 117.48 61.83 119.29 59.71C129.43 47.82 130.04 31.3 120.78 18.58C120.16 17.73 120.14 17.11 120.82 16.39C121.61 16.24 122.06 16.68 122.5 17.27C127.42 23.93 129.77 31.39 129.37 39.67C129.31 40.88 129.64 41.12 130.78 41.1C134.53 41.03 138.29 41.06 142.04 41.08C144.53 41.08 146.1 42.55 146.09 44.81C146.08 46.99 144.39 48.52 141.98 48.53C140.54 48.53 139.1 48.53 137.67 48.53C135.12 48.53 133.57 49.9 133.56 52.17C133.55 54.47 135.14 55.93 137.71 55.93C142.62 55.94 147.54 55.93 152.45 55.93C154.61 55.93 156.76 55.9 158.92 55.94C161.2 55.98 162.67 57.5 162.63 59.73C162.6 61.76 160.96 63.34 158.81 63.36C156.37 63.38 153.94 63.36 151.5 63.36C149.09 63.36 147.32 64.91 147.31 67C147.31 69.2 149.02 70.76 151.54 70.76C159.53 70.77 167.52 70.78 175.51 70.76C176.97 70.76 178.2 71.13 179 72.42C180.65 75.08 178.88 78.16 175.67 78.21C173.03 78.25 170.4 78.21 167.76 78.21C158.49 78.21 149.23 78.21 139.96 78.21C138.29 78.21 136.88 79.21 136.37 80.69C135.89 82.08 136.35 83.67 137.56 84.69C138.36 85.36 139.32 85.6 140.34 85.6C142.22 85.6 144.11 85.74 145.97 85.57C148.95 85.3 151.27 88.56 149.51 91.29C149.43 91.42 149.38 91.56 149.25 91.84C150.36 91.84 151.34 91.86 152.33 91.84C153.18 91.82 153.95 92.02 153.96 92.99C153.98 93.99 153.19 94.11 152.34 94.11C140.8 94.1 129.25 94.11 117.71 94.11C86.3897 94.11 55.0797 94.11 23.7597 94.11C22.8597 94.11 21.6797 94.32 21.7197 92.96C21.7497 91.75 22.8497 91.86 23.7397 91.86C28.2897 91.86 32.8497 91.85 37.3997 91.84C37.7797 92.03 38.1797 91.97 38.5797 91.97C50.1197 91.97 61.6597 91.97 73.1897 91.97C74.3897 91.97 75.5897 91.95 76.7797 91.97C77.3597 91.97 77.6697 91.81 77.6697 91.16C77.6497 89.17 77.6997 87.17 77.6397 85.18C77.5897 83.8 76.6397 83.12 75.2297 83.35C71.9597 83.88 68.6597 84.31 65.4197 85C62.2697 85.66 59.1697 83.2 59.2897 79.98C59.4597 75.04 59.3197 70.09 59.3497 65.15C59.3497 64.25 59.0897 63.95 58.1897 64C57.1197 64.07 56.0397 64.02 54.9597 64.02C52.1197 64.01 50.7597 61.83 52.0597 59.33C53.7497 56.08 55.5197 52.86 57.1997 49.6C58.5897 46.9 59.2797 44.02 59.2697 40.98C57.8997 22.76 69.9997 8.32998 84.9297 4.33998C95.8797 1.41998 105.99 3.37998 115.19 9.99998C115.76 10.41 116.29 10.84 115.99 11.66L116 11.64Z" fill="#313BD5"/>
<path d="M59.2697 40.96C59.2697 44 58.5897 46.89 57.1997 49.58C55.5197 52.84 53.7497 56.06 52.0597 59.31C50.7597 61.81 52.1297 63.99 54.9597 64C56.0397 64 57.1197 64.05 58.1897 63.98C59.0897 63.92 59.3597 64.23 59.3497 65.13C59.3097 70.07 59.4597 75.02 59.2897 79.96C59.1797 83.19 62.2697 85.65 65.4197 84.98C68.6597 84.3 71.9497 83.87 75.2297 83.33C76.6397 83.1 77.5897 83.78 77.6397 85.16C77.7097 87.15 77.6397 89.15 77.6697 91.14C77.6697 91.79 77.3597 91.96 76.7797 91.95C75.5797 91.93 74.3797 91.95 73.1897 91.95C61.6497 91.95 50.1097 91.95 38.5797 91.95C38.1797 91.95 37.7797 92.01 37.3997 91.82C37.2497 91.54 37.0797 91.27 36.9397 90.99C35.6997 88.46 37.3397 85.68 40.1497 85.6C41.9097 85.55 43.6697 85.64 45.4197 85.57C47.4097 85.5 48.8397 84.19 49.1197 82.29C49.3597 80.64 48.2797 78.95 46.6197 78.36C46.0697 78.17 45.5197 78.19 44.9597 78.19C38.0897 78.19 31.2197 78.19 24.3497 78.19C23.7497 78.19 23.1597 78.18 22.5697 77.99C20.8497 77.44 19.7897 75.82 19.9797 74.02C20.1697 72.25 21.5797 70.82 23.3997 70.76C26.1097 70.68 28.8297 70.76 31.5497 70.71C33.5597 70.68 35.0597 69.29 35.2797 67.35C35.4697 65.66 34.2897 63.9 32.5597 63.48C31.8797 63.31 31.1297 63.34 30.4197 63.34C22.6297 63.34 14.8497 63.34 7.05966 63.34C4.07966 63.34 2.19966 60.74 3.30966 58.17C3.99966 56.57 5.28966 55.89 7.03966 55.9C16.0597 55.92 25.0897 55.9 34.1097 55.9C36.9497 55.9 39.7797 55.92 42.6197 55.9C44.3497 55.88 45.7097 54.9 46.2297 53.42C46.7297 52 46.2997 50.42 45.1397 49.39C44.4497 48.78 43.6397 48.51 42.7197 48.51C40.6797 48.51 38.6497 48.52 36.6097 48.51C34.1997 48.49 32.4897 46.92 32.5097 44.76C32.5297 42.59 34.1997 41.06 36.6297 41.05C43.6597 41.04 50.6897 41.05 57.7097 41.05C58.2297 41.05 58.7397 41 59.2597 40.97L59.2697 40.96Z" fill="#CE2DAD"/>
<path d="M119.49 14.9C117.88 16.04 116.7 17.61 115.29 18.95C114.8 19.41 115.24 19.74 115.5 20.06C118.55 23.9 120.64 28.21 121.67 33.01C122.02 34.65 122.21 36.31 122.28 37.98C122.33 39.08 121.79 39.51 120.78 39.51C118.9 39.51 117.03 39.51 115.15 39.51C114.25 39.51 113.77 39.18 113.72 38.18C113.5 33.87 111.86 30.07 109.44 26.55C108.83 25.66 108.49 25.71 107.79 26.45C104.98 29.4 102.12 32.29 99.2498 35.18C98.7398 35.69 98.5898 36.08 98.8698 36.82C99.8898 39.5 98.4198 42.41 95.7998 43.1C93.1298 43.8 90.4798 42.16 89.9198 39.43C89.3698 36.76 91.3098 34.17 94.1398 33.79C94.7998 33.7 95.4598 33.78 96.0098 34.06C96.8398 34.49 97.3398 34.27 97.9498 33.64C100.75 30.74 103.59 27.87 106.46 25.05C107.21 24.32 107.05 23.94 106.3 23.42C102.98 21.1 99.3998 19.32 95.3098 19.09C90.9898 18.85 86.9998 20.11 83.5298 22.7C78.4298 26.52 75.7298 31.65 75.5398 38.05C75.5098 39.12 75.0198 39.55 73.9798 39.53C72.1398 39.5 70.3098 39.5 68.4698 39.53C67.4298 39.54 66.9898 39.14 66.9798 38.04C66.7998 24.79 77.3998 12.49 90.5198 10.71C98.7698 9.59 105.96 12.08 112.39 17.08C113.29 17.78 113.78 17.68 114.42 16.91C115.49 15.63 116.9 14.67 117.81 13.25C119.41 11.65 121.01 10.04 122.61 8.44C123.15 7.9 123.72 7.4 124.44 8.08C125.18 8.78 124.79 9.43 124.2 10.03C122.62 11.65 121.05 13.29 119.47 14.92L119.49 14.9ZM94.4298 12.5C93.9898 12.54 93.5498 12.58 93.1098 12.6C80.6998 13.35 70.3498 23.32 69.1998 35.65C69.0931 36.7967 69.5998 37.37 70.7198 37.37C71.3198 37.37 71.9198 37.33 72.5198 37.37C73.1698 37.42 73.3898 37.2 73.4598 36.53C73.8098 32.99 74.9298 29.7 76.8398 26.68C81.5498 19.25 90.7798 15.42 99.0198 17.56C102.35 18.42 105.33 20 108.04 22.09C108.49 22.44 108.76 22.53 109.18 22.03C109.85 21.24 110.61 20.53 111.36 19.82C111.74 19.46 111.75 19.24 111.32 18.9C106.36 14.97 100.8 12.65 94.4198 12.5H94.4298ZM117.89 37.37C118.09 37.37 118.29 37.37 118.49 37.37C120.18 37.37 120.17 37.37 119.95 35.72C119.34 30.92 117.54 26.59 114.76 22.65C113.92 21.4567 113.003 21.3733 112.01 22.4C111.65 22.77 111.31 23.18 110.9 23.49C110.25 23.98 110.41 24.35 110.84 24.93C113.19 28.11 114.86 31.6 115.56 35.52C115.89 37.37 115.91 37.37 117.89 37.37ZM94.4898 35.91C93.1298 35.94 91.9598 37.2 91.9798 38.59C91.9998 40 93.1998 41.2 94.5698 41.17C95.9198 41.15 97.1198 39.87 97.0898 38.5C97.0498 37.09 95.8398 35.88 94.4898 35.91Z" fill="#CE2DAD"/>
<path d="M22.6404 41.05C24.7504 41.03 26.4004 42.62 26.4304 44.7C26.4604 46.76 24.8104 48.45 22.7504 48.49C20.6804 48.53 19.0104 46.89 18.9904 44.81C18.9704 42.69 20.5504 41.07 22.6504 41.05H22.6404Z" fill="#313BD5"/>
<path d="M159.98 93.04C157.97 93.05 156.24 91.36 156.19 89.33C156.14 87.3 157.95 85.5 160 85.53C162 85.56 163.71 87.29 163.74 89.31C163.77 91.24 161.96 93.04 159.97 93.05L159.98 93.04Z" fill="#7CB3D8"/>
<path d="M168.64 94.1C167.92 94.1 167.2 94.09 166.48 94.1C165.74 94.11 165.33 93.69 165.28 93.03C165.24 92.4 165.7 91.92 166.29 91.89C167.88 91.82 169.48 91.82 171.08 91.89C171.76 91.92 172.13 92.43 172.06 93.14C171.99 93.81 171.57 94.1 170.91 94.09C170.15 94.09 169.39 94.09 168.64 94.09V94.1Z" fill="#7CB3D8"/>
<path d="M17.9197 94.11C17.4597 94.06 16.9597 94.22 16.5397 93.89C16.1097 93.56 15.9597 93.1 16.1597 92.62C16.5497 91.65 17.4297 91.88 18.1997 91.84C18.8797 91.81 19.4897 91.94 19.7397 92.66C19.9197 93.16 19.7397 93.59 19.2997 93.91C18.8697 94.22 18.3797 94.05 17.9197 94.11Z" fill="#7CB3D8"/>
</svg>
